<svg width="24" height="24" viewBox="0 0 24 24" xmlns="http://www.w3.org/2000/svg" fill="none">
  <path d="M3.5 6.75C3.5 5.78 4.28 5 5.25 5H8C8.97 5 9.75 5.78 9.75 6.75V18.25C9.75 19.22 8.97 20 8 20H5.25C4.28 20 3.5 19.22 3.5 18.25V6.75ZM5.25 6.5C5.11 6.5 5 6.61 5 6.75V18.25C5 18.39 5.11 18.5 5.25 18.5H8C8.14 18.5 8.25 18.39 8.25 18.25V6.75C8.25 6.61 8.14 6.5 8 6.5H5.25Z" fill="currentColor"/>
  <path d="M9 5.75C9 4.78 9.78 4 10.75 4H13.5C14.47 4 15.25 4.78 15.25 5.75V18.25C15.25 19.22 14.47 20 13.5 20H10.75C9.78 20 9 19.22 9 18.25V5.75ZM10.75 5.5C10.61 5.5 10.5 5.61 10.5 5.75V18.25C10.5 18.39 10.61 18.5 10.75 18.5H13.5C13.64 18.5 13.75 18.39 13.75 18.25V5.75C13.75 5.61 13.64 5.5 13.5 5.5H10.75Z" fill="currentColor"/>
  <path d="M14.5 8.25C14.5 7.28 15.28 6.5 16.25 6.5H19C19.97 6.5 20.75 7.28 20.75 8.25V18.25C20.75 19.22 19.97 20 19 20H16.25C15.28 20 14.5 19.22 14.5 18.25V8.25ZM16.25 8C16.11 8 16 8.11 16 8.25V18.25C16 18.39 16.11 18.5 16.25 18.5H19C19.14 18.5 19.25 18.39 19.25 18.25V8.25C19.25 8.11 19.14 8 19 8H16.25Z" fill="currentColor"/>
  <path d="M17.5 1.75L18.08 3.15L19.5 3.75L18.08 4.35L17.5 5.75L16.92 4.35L15.5 3.75L16.92 3.15L17.5 1.75Z" fill="currentColor"/>
</svg>
