<svg width="24" height="24" viewBox="0 0 24 24" xmlns="http://www.w3.org/2000/svg">
  <path d="M4 5.5C4 4.67 4.67 4 5.5 4H14.5C15.33 4 16 4.67 16 5.5V11.5C16 12.33 15.33 13 14.5 13H5.5C4.67 13 4 12.33 4 11.5V5.5Z" fill="#C5C5C5"/>
  <path d="M7 8.5C7 7.67 7.67 7 8.5 7H17.5C18.33 7 19 7.67 19 8.5V14.5C19 15.33 18.33 16 17.5 16H8.5C7.67 16 7 15.33 7 14.5V8.5Z" fill="#C5C5C5"/>
  <path d="M10 11.5C10 10.67 10.67 10 11.5 10H19C19.55 10 20 10.45 20 11V17.5C20 18.33 19.33 19 18.5 19H11.5C10.67 19 10 18.33 10 17.5V11.5Z" fill="#C5C5C5"/>
  <path d="M18.5 2.25L19.31 4.19L21.25 5L19.31 5.81L18.5 7.75L17.69 5.81L15.75 5L17.69 4.19L18.5 2.25Z" fill="#C5C5C5"/>
</svg>
